# xmcd
#
# Track frame offsets: 
#        150
#        15447
#        31219
#        46989
#        60403
#        76576
#        95198
#        108187
#        127390
#        149414
#        165225
#        175364
#        189197
#        203825
#        214994
#        224132
#        246058
#        257904
#        270324
#        284014
#        298419
#        310857
#        325559
#        341365
#
# Disc length: 4739 seconds
#
# Revision: 4
# Processed by: cddbd v1.5.2PL0 Copyright (c) Steve Scherf et al.
# Submitted via: ExactAudioCopy v0.95b4
#
DISCID=68128118
DTITLE=In The Mix - Ibiza Classics (Disk 1)
DYEAR=2006
DGENRE=House
TTITLE0=The Shapeshifters - Lola's Theme
TTITLE1=Roger Sanchez - Another Chance
TTITLE2=Justive vs Simian - We Are Your Friends (Lee Cabrera's "Lower 
TTITLE2=East Side" Remix)
TTITLE3=Sneaker Pimps - Spin Spin Sugar (Armand's Dark Garage Mix)
TTITLE4=Faithless - Insomnia (Armand's European Vacation Mix)
TTITLE5=Blaze PTS UDA feat. Barbara Tucker - Most Precious Love (DF Fu
TTITLE5=ture 3000 Vocal Mix)
TTITLE6=Bob Sinclar feat. Gary 'Nesta' Pine - Love generation
TTITLE7=Mouse T vs Dandy Warhols - Horny As A Dandy (Mousse T's Extend
TTITLE7=ed Mix)
TTITLE8=Armand Van Helden feat. Tara McDonald - MyMyMy (StoneBridge Re
TTITLE8=mix)
TTITLE9=Bob Marley vs Funkstar De Luxe - Sun Is Shining
TTITLE10=Paul Johnson - Get Get Down
TTITLE11=Room 5 feat. Oliver Cheatham - Make Luv
TTITLE12=Modjo - Lady (Hear Me tonight)
TTITLE13=Silicone Soul - Right on!
TTITLE14=David Guetta feat. Chris Willis - Just A Little More (Wally L
TTITLE14=opez Remix)
TTITLE15=Dep Dish - Flashdance
TTITLE16=The Ones - Flawless
TTITLE17=De'Lacy - Hideaway (Deep Dish Mix)
TTITLE18=Tim Deluxe feat. Sam Obernik - It Just Won't Do
TTITLE19=Jaydee - Plastic dreams
TTITLE20=Freemasons feat. Amanda Wilson - Love On My Mind (Back To Phi
TTITLE20=lly Mix)
TTITLE21=K-Klass - Rhythm Is A Mystery
TTITLE22=Spiller - Groovejet (If This Ain't Love)
TTITLE23=Stardust - Music Sounds Better With You (12" Club Mix)
EXTD=
EXTT0=
EXTT1=
EXTT2=
EXTT3=
EXTT4=
EXTT5=
EXTT6=
EXTT7=
EXTT8=
EXTT9=
EXTT10=
EXTT11=
EXTT12=
EXTT13=
EXTT14=
EXTT15=
EXTT16=
EXTT17=
EXTT18=
EXTT19=
EXTT20=
EXTT21=
EXTT22=
EXTT23=
PLAYORDER=
